<?xml version="1.0" encoding="utf-8"?>
<!-- Generator: Adobe Illustrator 22.0.0, SVG Export Plug-In . SVG Version: 6.00 Build 0)  -->
<svg version="1.1" xmlns="http://www.w3.org/2000/svg" xmlns:xlink="http://www.w3.org/1999/xlink" x="0px" y="0px"
	 viewBox="0 0 128 128" style="enable-background:new 0 0 128 128;" xml:space="preserve">
<style type="text/css">
	.st1{fill:#CAA13D;}
</style>
<g id="Calque_1">
	<path class="st1" d="M113,38.9c-5.3-8.2-12.9-14.5-22.8-19C80.3,15.3,68.8,13,55.7,13H9c-0.1,0-0.1,0-0.2,0
		c-2.1,0.1-2.8,2.6-1.2,3.8l27.9,20.4c1.6,1.1,3.5,1.8,5.4,1.8l0,0H53c10.2,0,18.2,2.4,24,7.3c5.8,4.8,8.7,11.7,8.7,20.6
		c0,8.8-2.1,12.4-7,17c-2.9,2.8-9,5.5-13.9,7.8c-2.2,1.1-3,3.8-1.5,5.7L77,116c0.7,1,2,1.4,3.2,1.1c3.2-0.9,7.3-2,9.8-3.2
		c9.9-4.6,17.5-11,22.9-19.2c5.4-8.2,8.1-17.4,8.1-27.8C121,56.4,118.3,47,113,38.9z"/>
	<path class="st1" d="M50.8,119.4l-14.1,0.3c-5.3,0.1-9.7-3.9-9.8-8.9l0.2-19"/>
	<path class="st1" d="M49.8,76.8H26.9V57.4h22.9c5.3,0,9.7,4.3,9.7,9.7v0C59.5,72.5,55.2,76.8,49.8,76.8z"/>
</g>
</svg>
